<?xml version="1.0" encoding="UTF-8"?>
<svg version="1.1" viewBox="0 0 1824 1824" width="1280" height="1280" xmlns="http://www.w3.org/2000/svg">
<path transform="translate(0)" d="m0 0h1824v1824h-1824z" fill="#4F2BD5"/>
<path transform="translate(448,684)" d="m0 0h89l6 7 12 20 14 22 15 24 36 57 13 21 12 19 15 24 12 19 13 21 24 38 13 21 14 22 12 19 13 21 7 11v2h2l-2-12-1-20-1-146v-189l1-1h73l1 15v44l-1 415h-82l-7-8-15-24-12-19-15-24-15-23-11-18-16-25-12-19-15-24-16-25-14-22-12-19-14-22-12-19-14-22-15-24-9-14-10-19-2-5-2-1 1 5 1 14 1 355-1 2h-73l-1-1-1-146v-261z" fill="#FDFDFC"/>
<path transform="translate(942,684)" d="m0 0h249v66l-1 1h-171v134h157l2 2v64l-158 1-1 139h153l29 1 1 1v64l-1 1-256 1-3-1-1-39v-434z" fill="#FEFEFD"/>
<path transform="translate(1229,683)" d="m0 0 341 1 1 65-2 2h-131v406l-1 1h-76l-1-1v-406h-131l-1-1v-66z" fill="#FEFEFD"/>
<path transform="translate(317,1076)" d="m0 0h14l11 3 10 5 10 9 6 9 3 8 1 6v9l-3 12-6 10-5 6-10 7-11 4-4 1h-15l-13-4-10-6-9-9-6-13-1-4v-17l4-11 6-8 5-5 7-6 12-5z" fill="#FEFEFD"/>
</svg>
